<?xml version="1.0" encoding="UTF-8"?>
<svg id="Layer_1" data-name="Layer 1" xmlns="http://www.w3.org/2000/svg" viewBox="0 0 790.15 140.67">
  <defs>
    <style>
      .cls-1 {
        fill: #68cce9;
      }

      .cls-2 {
        fill: #1d2d33;
      }

      .cls-3 {
        fill: #fdf6e4;
        font-family: MontserratRoman-Regular, Montserrat;
        font-size: 125.14px;
        font-variation-settings: 'wght' 400;
      }

      .cls-4 {
        letter-spacing: 0em;
      }

      .cls-5 {
        fill: #f6f8dc;
      }

      .cls-6 {
        letter-spacing: -.01em;
      }

      .cls-7 {
        letter-spacing: 0em;
      }

      .cls-8 {
        fill: #f68a24;
      }

      .cls-9 {
        fill: #9fd195;
      }
    </style>
  </defs>
  <text class="cls-3" transform="translate(121.86 107.31)"><tspan x="0" y="0">Baja </tspan><tspan class="cls-6" x="309.09" y="0">E</tspan><tspan x="390.93" y="0">x</tspan><tspan class="cls-7" x="457.76" y="0">p</tspan><tspan class="cls-4" x="542.23" y="0">at</tspan></text>
  <g>
    <path class="cls-5" d="M102.71,18.66c15.74,15.09,22.6,39.09,17.48,60.87-8.74,37.17-48.02,58.8-82.06,43.33C.8,105.9-10.76,56.08,16.1,23.36,37.57-2.8,78.58-4.47,102.71,18.66ZM58.42,5.07c-22.22,1.21-40.75,14.39-49.74,35.62-15.17,35.82,7.7,78.25,44.42,83.85,47.35,7.22,82.79-46.89,58.12-90.41-10.19-17.99-27.27-28.2-47.27-29.06l.55-.26c-1.96.06-3.94-.08-5.9,0-.3.01-.4-.09-.18.26Z"/>
    <path class="cls-2" d="M63.95,5.07c20,.87,37.08,11.08,47.27,29.06,24.66,43.52-10.77,97.64-58.12,90.41C16.39,118.95-6.48,76.52,8.69,40.69,17.68,19.46,36.2,6.28,58.42,5.07c1.71-.09,3.81-.07,5.53,0ZM102.04,25.16C85.81,6.61,56.74,2.53,35.57,13.89c-1.23.66-8.78,5.31-9.22,6.05-.09.16-.15.26-.12.46l11.21-.09c1.13.38,1.33,2.58.04,2.81-1.85.32-7.15.12-9.22,0-1.4-.08-3.85-.85-4.96-.19-.52.31-4.53,4.82-4.73,5.34-.07.17-.09.32-.07.51,4.05.1,8.11-.07,12.16-.13.08,0,.16,0,.25,0,1.1-.01,2.21.02,3.32,0h8.48c1.27.8.87,2.2-.31,2.83-5.94-.13-11.88.16-17.82.14-2.47,0-5.01-.27-7.48-.27-.3,0-.47-.03-.75.13-.69.39-3.04,5.32-3.74,6.26-.03.27.02.15.18.19,1.11.23,3.94-.96,2.57,1.79-.93,1.87-3.31.3-4.22,1.11-.21.19-2.25,5.11-2.22,5.4.05.42,4.97.04,5.57.22,1.02.31.85,2.43-.6,2.66-.93.15-5.48-.18-5.81.03-.24.15-1.35,5.09-1.46,5.74-.52,3.03-.58,6.11-.77,9.17h2.95v-5.86c0-3.96,5.05-6.56,7.01-2.58,1.04,2.12-.08,7.69.42,8.45.15.23,2.36.17,2.77.12l-.11-22.84c.89-8.53,11.61-7.78,12.27-.02.39,4.57-.07,9.57.11,14.18-.02.13.09.44.19.44h2.46c.44,0,.52-.99.55-1.36.24-2.5-.94-7.74,1.05-9.46,2.33-2.02,5.45.55,6.14,3.09.54,2.02.5,8.11,0,10.17-.52,2.17-1.78,3.91-3.01,5.66l78.17-.12c.25-.08.21-1,.21-1.23,0-.5-.25-4.5-.46-4.57-.18-.06-1.05-.11-1.32-.13-7.35-.52-16.04-.09-23.53-.12-5.92-.03-11.84.09-17.76.11l-1.16-1.4c.03-.09-.02-.27,0-.39.02-.14.05-.27.12-.39,1.58-1.23,1.32-.65,3.13-.64,11.35.09,22.7-.1,34.04-.01.8,0,5.62.35,5.95,0,.15-.16-.55-3.86-.67-4.38-.1-.42-.25-1.51-.64-1.64-3.84.06-7.69.16-11.53.11-2.12-.03-4.5-.02-6.63-.13-1.12-.06-2.7.12-2.98-1.26-.48-2.43,2.92-1.46,4.2-1.44,4.76.07,10.59.36,15.25,0,.16-.01.85-.08.9-.15.28-.39-1.67-5.59-2.16-5.76l-17.55-.29c-1.7.13-2.78.54-3.46,2.3-.22.59-.36,2.53-.96,2.6-.23.03-1.77-.22-1.97-.38-.21-.17-.82-1.91-1.23-2.44-1.25-1.61-2.7-1.55-4.38-1.97-1.43-.36-1.69-2.25-.14-2.54,1.8-.33,3.58.33,5.01,1.43.35.27,1.63,1.65,1.74,1.65.16,0,1.22-1.2,1.48-1.42,1.55-1.27,2-1.45,3.99-1.55,1.01-.05,2.09.15,3.07-.13,3.6.09,7.87.22,11.43,0,.39.29.83.12,1.23,0,.27-.09.42.22.37-.39-.02-.25.08-.29-.25-.26-.24-.66-2.97-5.7-3.28-5.8l-26.26.13c-1.65-.24-1.73-2.41-.06-2.71,6.94-.14,13.9.18,20.83,0,.23,0,.47.05.67-.13.53,0,1.07.03,1.6,0,.19-.01,1.04-.05,1.11-.13.16-.21-.31-.43-.37-.51-.53-.81-1.13-1.35-1.72-2.06-.2-.24-.36-.48-.61-.77ZM24.03,91.22l-.43-53.44c-.99.58-1.65,1.78-2.06,2.86-.38,15.99-.26,32.05-.33,48.08,0,.51-.32,1.06.03,1.57l2.79.93ZM28.82,92.89l-.13-44.75c.08-3.61,1.09-8.19-2.45-10.36l-.13,53.77c-.17.63,2.6,1.47,2.71,1.35ZM38.48,47.36c-.54-.56-1.31-.81-1.52.17-.36,1.64.22,5.09.1,7.06-.07,1.13-.15,2.57-.95,3.39l-1.7-.63c-.9.86-1.72,1.33-3.01,1.16.21.66-.17,4.97,0,5.15.08.08,1.82-.25,2.09-.32,2.91-.75,5.61-2.99,5.9-6.31.17-1.96.33-8.38-.91-9.68ZM12.32,56.34c-.57.1-1.01,1.05-1.07,1.59-.38,3.12-.29,9.21,1.78,11.65.97,1.14,4.13,3.55,5.64,2.94.3-.12.28-1.8.14-2.04-.06-.11-1.77-.74-2.15-.96-4.73-2.78-2.36-7.87-3.08-12.1-.09-.53-.71-1.18-1.25-1.08ZM19.09,66c-.08-.13-2.68-1.18-2.81-1.05s.05.96.14,1.2c.23.62,1.8,2.1,2.42,1.61.14-.11.37-1.55.24-1.77ZM33.85,66.11h-2.33l-.35,6.36c.06.17,2.24.98,2.56,1.05,5.15,1.17,7.74-2.99,12.35-3.28s7.42,3.48,11.67,3.49c3.63,0,6.5-3.14,10.07-3.37,5.38-.34,8.81,4.69,14.41,3,1.61-.48,3.01-1.73,4.54-2.32,7.3-2.81,10.45,3.51,16.66,2.53,4.75-.75,5.87-4.21,11.88-2.76.26.06.94.48,1.04.46.22-.06.91-4.5.73-4.65s-4.06-.51-4.54-.51c-5.21.01-7.48,4.11-13.42,2.49-2.44-.66-4.07-2.26-6.84-2.49-5.11-.41-5.98,1.3-10.14,2.51-5.75,1.67-8.19-2.67-13.45-2.65s-8.21,4.19-13.89,2.59c-4.13-1.16-5.23-3.22-10.3-2.44-3.69.58-7.17,4.18-10.96,2.3l.31-2.32ZM11.62,72.03c.2-.2-1.44-2.2-1.64-2.59-.26-.5-.91-2.72-1.18-2.88l-2.53.19c-.13.19.16,4.48.31,4.64.08.08,1.75-.3,2.26-.24s2.53,1.13,2.78.89ZM116.15,74.5c-.16-.29-2.8-.88-3.25-.9-3.86-.22-6.56,2.76-10.18,3.07-4.35.37-6.71-2.71-10.7-3.2-3.75-.46-4.7.56-7.83,1.94-8.07,3.54-9.46-2.31-16.24-1.96-4.2.22-6.72,3.47-11.3,3.1-3.27-.26-5.8-2.83-9.21-3.09-5.05-.4-7.72,3.38-12.16,3.21-.64-.02-3.97-.93-4.12-.77s.4,3.68,0,4.31c0,.19.09.22.21.3.79.51,4.26.75,5.24.65,3.35-.33,6.05-3.16,9.37-3.44,4.1-.35,6.45,2.76,10.2,3.31,5.45.8,8.46-3.69,13.62-3.2,2.52.24,4.68,2.36,7.09,3,6.5,1.75,8.97-3.36,14.29-3.13,4.26.19,6.64,3.93,11.66,3.48,3.37-.3,6.38-3.35,9.71-3.22.57.02,2.25.63,2.56.51.18-.07,1.14-3.78,1.04-3.96ZM18.87,75.38c-1.48-.16-3-.11-4.48-.26-1.81-.19-4.86-1.02-6.5-.76-.18.03-.61.11-.67.32l.72,4.18c3.13-.54,5.61,1.63,8.78,1.81.45.02,2.03.13,2.22-.26.29-.61-.25-4.06-.06-5.02ZM31.15,83.88l-.07,4.51c1.57.42,3.3.72,4.92.63,3.8-.2,6.45-3.47,10.32-3.48,4.13-.02,7.15,3.19,10.93,3.36,5.24.24,8.25-4.48,13.95-3.04,1.91.48,3.99,2.17,5.87,2.74,5.55,1.68,8.26-2.78,12.98-3.06,6.29-.37,8.05,5.45,15.73,2.58,1.71-.64,3.48-2.11,5.28-2.2.51-.03,1.22.3,1.66.07.17-.09,1.62-3.53,1.6-3.73-.1-.97-3.27-.94-3.98-.83-1.93.31-3.71,1.83-5.57,2.4-6.32,1.93-8.96-3.05-14.83-2.8-3.97.17-6.62,3.48-11.06,3.23-2.98-.17-4.14-1.49-6.61-2.47-6.33-2.53-9.59,2.75-15.51,2.35-3.35-.23-5.82-2.69-9.09-2.96-5.51-.46-7.97,3.49-13.76,3.09-.41-.03-2.63-.52-2.76-.39ZM18.87,83.62c-1.89.35-3.87.35-5.72-.25-.97-.32-2.83-1.63-3.79-1.27-.14.05-.21.13-.2.29.3.67,1.56,5.03,1.84,5.16l7.86,1.22v-5.15ZM111.74,89.16c-3.65.21-6.61,3.11-10.39,2.97s-6.38-3.24-10.07-3.48c-6.17-.4-8.47,5.4-15.82,2.54-1.43-.56-2.6-1.58-4.09-2.02-5.78-1.69-7.82,2.29-12.77,2.69-6.13.49-9.05-5.06-15.72-2.45-3.42,1.34-4.43,2.87-8.59,2.58-.46-.03-3.03-.64-3.14-.51-.09.11-.09,2.79,0,2.91.15.22,4.28,1.9,4.81,2.04,1.58.45.8.05.85-1.15.09-2.11,1.87-2.68,2.89-.96.48.81.26,1.45.44,2.12.1.38.37-.26.42-.32,1.99-2.09,3.98-3.27,6.88-3.09,4.18.27,7.13,4.13,11.52,3.44,3.87-.61,6.12-3.68,10.48-3.32,2.29.19,3.78,1.48,5.75,2.34,7.83,3.44,9.64-2.95,16.49-2.34,3.83.34,6.38,3.79,10.44,3.61,1.57-.07,5.44-1.65,6.68-2.66,1.33-1.09,1.88-3.54,2.96-4.95ZM12.48,90.7c0,.58.9,2.07,1.21,2.66,12.09,23.65,39.33,34.25,63.81,27.17.22-.06.41-.02.34-.34-11.76-1.59-22.08-7.88-32.53-13.24-.19-.07-.34-.03-.52.04-.27.12-1.75,1.86-2.28,2.25-1.81,1.34-4.16,1.8-6.27,1.03-1.9-.69-5.68-4.23-6.55-6.14-1.35-2.96.56-3.93,2.44-1.2.12.17.18.66.44,1.02.47.65,3.41,4.49,4.23,3.74.23-.21-2.69-5.05-3.56-5.15-1.09-1.32-.81-2.87,1.11-2,.44.2,1.28,1.33,1.41,1.35.6.11.19-2.46-.3-3.03-1.28-1.49-6.71-2.95-8.6-3.73-3.97-1.63-10.07-5.18-14.25-4.95-.16,0-.33,0-.49,0l.37.51ZM41.84,99.72c-.03.72,0,1.02.13,1.11.17.11.5-.14,1.1-.34,6.6-2.21,9.73,4,16.03,3.34,2.89-.3,5.37-2.93,8.36-3.21,4.98-.47,6.38,2.7,10.5,3.54,6.1,1.24,8.94-5.92,16.28-2.77,2.03.87,5,3.18,7.25,2.84.86-.13,2.69-2.54,3.3-3.36.22-.29,1.69-2.27,1.55-2.43-.12-.13-2.53,1.1-3.19,1.23-5.32,1.03-7.03-3-11.5-3.42-6.67-.62-8.8,5.73-16.15,2.63-1.11-.47-2.09-1.23-3.16-1.71-6.86-3.11-9.21,2.74-15.1,2.43-3.12-.16-4.92-2.37-7.67-3.04-2.49-.6-7.6-.5-7.75,3.16ZM38.25,97.82c-.07-.05-.34-.1-.35.04.26,2.05-.08,4.43.13,6.43.03.28.26,1.59.67,1.48.71-.18.44-7.32-.45-7.95ZM41.94,103.1c-.59-.34-.46.55-.69,1.08-.25.57-2.17,2.74-1.38,3.34.88.66,3.93-2.89,3.91-3.77-.02-.95-1.45-.27-1.63-.31-.14-.04-.15-.3-.22-.34ZM47.43,103.2c-.67-.07-1.52,0-2.21,0-.6,0,.48,1.03.61,1.16,1.82,1.74,9.86,5.36,12.47,6.37.42.16,1.6.65,1.96.66.52.02,4.36-2.41,5.34-2.79,5.69-2.16,8.61,3.24,14.14,3.1,4.88-.12,7.23-5.3,13.1-3.45,1.09.35,2.43,1.89,3.41,1.57.41-.14,2.7-2.17,2.45-2.62-3.46-2.19-6.01-4.01-10.31-3.17-2.41.47-4.31,2.25-6.63,2.96-5.84,1.8-7.55-2.66-12.47-3.02-6.2-.45-8.79,5.12-15.29,2.51-2.33-.94-3.9-2.99-6.58-3.28ZM93.31,111.96c-.1-.17-1.74-.81-2.05-.87-5.41-1.07-8.24,5.3-15.26,3.12-5.03-1.57-7.27-5.55-12.7-.94-.56.48.06.31.42.42,4.77,1.55,9.19,3.11,14.2,3.79,2.8.38,4.44.76,7.13-.35,2.91-1.2,5.42-3.15,8.15-4.72.13-.08.18-.34.12-.44Z"/>
    <path class="cls-5" d="M102.04,25.16c-.63-.16.31,1.27.61.77.59.71,1.19,1.25,1.72,2.06-.37.3-.87.14-.74.64-.52.03-1.07,0-1.6,0-7.19-.09-14.46-.2-21.68-.13,0,0-1.41,2.72.24,2.96l26.26-.13c.31.09,3.05,5.14,3.28,5.8.05.14-.13.32.25.26.05.6-.09.3-.37.39-.32-.36-.97-.02-1.23,0-3.56.22-7.83.09-11.43,0-.88-.02-1.75-.16-2.65-.13-.24,0-.49-.13-.42.26-1.99.1-2.43.28-3.99,1.55-.26.21-1.32,1.42-1.48,1.42-.12,0-1.39-1.38-1.74-1.65-1.43-1.1-3.2-1.77-5.01-1.43-1.54.29-1.29,2.18.14,2.54,1.68.42,3.13.37,4.38,1.97.41.53,1.02,2.27,1.23,2.44.19.16,1.73.41,1.97.38.6-.07.74-2.01.96-2.6.68-1.76,1.76-2.17,3.46-2.3l17.55.29c.49.16,2.44,5.36,2.16,5.76-.05.07-.74.14-.9.15-4.66.36-10.49.07-15.25,0-1.28-.02-4.68-.98-4.2,1.44.27,1.38,1.85,1.2,2.98,1.26,2.13.11,4.51.1,6.63.13,3.84.05,7.69-.05,11.53-.11.39.13.54,1.23.64,1.64.12.52.82,4.23.67,4.38-.33.34-5.15,0-5.95,0-11.35-.09-22.7.1-34.04.01-1.8-.01-1.55-.59-3.13.64-.04.03-1.01.15-.12.39-.02.12.03.29,0,.39,0,.02-.24-.02-.25,0-.46,1.18.94,1.44,1.78,1.67,5.64-.3,11.32.07,16.96-.13.24,0,.49.13.42-.26,7.49.04,16.18-.4,23.53.12.27.02,1.14.07,1.32.13.21.07.45,4.07.46,4.57,0,.23.04,1.16-.21,1.23l-78.17.12c1.24-1.75,2.49-3.5,3.01-5.66s.54-8.15,0-10.17c-.68-2.55-3.8-5.11-6.14-3.09-1.99,1.72-.81,6.96-1.05,9.46-.03.36-.11,1.36-.55,1.36h-2.46c-.1,0-.22-.31-.19-.44-.18-4.61.28-9.61-.11-14.18-.66-7.76-11.38-8.51-12.27.02l.11,22.84c-.42.05-2.62.11-2.77-.12-.5-.75.62-6.33-.42-8.45-1.96-3.98-7.01-1.38-7.01,2.58v5.86h-2.95c.19-3.06.24-6.15.77-9.17.11-.65,1.22-5.59,1.46-5.74.33-.21,4.88.12,5.81-.03,1.45-.24,1.61-2.35.6-2.66-.59-.18-5.51.2-5.57-.22-.04-.29,2-5.21,2.22-5.4.91-.81,3.29.75,4.22-1.11,1.37-2.75-1.46-1.55-2.57-1.79-.16-.03-.21.09-.18-.19.7-.94,3.04-5.87,3.74-6.26.28-.16.45-.13.75-.13,2.47,0,5.01.27,7.48.27,5.94.02,11.88-.27,17.82-.14,1.18-.63,1.58-2.03.31-2.83-.41-.26-7.1-.15-8.18-.13-.26,0-.28.13-.3.13-1.1.02-2.21-.01-3.32,0l-.18-.13-.06.13c-4.05.05-8.11.23-12.16.13-.02-.18,0-.34.07-.51.21-.52,4.21-5.03,4.73-5.34,1.11-.67,3.56.11,4.96.19,2.08.12,7.37.32,9.22,0,1.29-.22,1.09-2.42-.04-2.81l-11.21.09c-.04-.2.02-.3.12-.46.43-.74,7.98-5.39,9.22-6.05,21.17-11.36,50.23-7.28,66.47,11.27ZM77.32,13.09c-3.42-.16-7.46.34-10.96.36-6.8.03-13.61-.22-20.41-.27-1.45.24-1.06,3,.49,2.84,6.39-.04,12.78.35,19.18.26,3.65-.05,8.35-.01,11.91-.39,2.3-.24,1.97-2.69-.22-2.8ZM86.53,20.18c-4.43.02-8.87.12-13.3.23-1.53.54-1.22,2.38.24,2.7,6.64-.41,13.96.42,20.52-.13,1.21-.1,2.32-.24,1.82-1.91-.26-.89-1.53-.87-2.31-.93-2.22-.15-4.72.03-6.97.04ZM49.05,22.67c.68-.63.52-1.72-.22-2.2-.46-.3-5.49-.29-6.28-.17-1.86.29-1.47,2.58-.4,2.79.99.2,5.01.03,6.14-.12.24-.03.58-.14.76-.3ZM71.25,52.9c9.24-8.34,8.15-23.29-3.29-28.66-15.32-7.2-28.66,11.67-19.22,25.3,5.31,7.66,15.45,9.73,22.51,3.36ZM39.48,37.56c-.93,0-3.46-.06-4.19.12-1.64.4-.72,2.39.49,2.65,1.17-.4,4.88.29,5.68-.3.5-.37.64-1.32.36-1.91-.4-.84-1.65-.56-2.34-.56ZM81.62,46.32c-.68.06-1.81.07-2.12.87-.29.74.22,1.53.89,1.77.87.3,4.82.2,5.55-.29.9-.61.73-2.12-.2-2.35-.73-.18-3.25-.06-4.11.01ZM46.85,55.07c-2.06.29-2.23,2.39-.16,2.67,1.03.14,4.27.4,3.84-1.45-.36-1.57-2.48-1.39-3.68-1.22Z"/>
    <path class="cls-8" d="M33.24,102.55c-.23-.03-1.02.1-1.11.39-1.87-2.73-3.78-1.76-2.44,1.2.87,1.91,4.65,5.45,6.55,6.14,2.11.77,4.45.31,6.27-1.03.53-.39,2-2.14,2.28-2.25.18-.07.33-.11.52-.04,10.44,5.36,20.77,11.65,32.53,13.24.07.33-.12.28-.34.34-24.47,7.08-51.72-3.52-63.81-27.17-.3-.59-1.2-2.08-1.21-2.66,0-.04.22-.34.12-.52,4.18-.22,10.29,3.32,14.25,4.95,1.89.78,7.32,2.25,8.6,3.73.49.57.91,3.15.3,3.03-.14-.03-.97-1.15-1.41-1.35-1.92-.88-2.19.68-1.11,2ZM47.21,113.27c-1.93.33-2.37,3-.14,3.3,1.28.17,2.9.25,2.99-1.48s-1.61-2.03-2.85-1.82ZM57.9,117c-1.3.29-1.64,2.76-.02,3.05.96.17,2.09.1,2.25-1.1.21-1.61-.82-2.27-2.23-1.95Z"/>
    <path class="cls-1" d="M33.85,66.11l-.31,2.32c3.78,1.88,7.26-1.73,10.96-2.3,5.07-.79,6.17,1.27,10.3,2.44,5.68,1.6,8.51-2.57,13.89-2.59s7.7,4.32,13.45,2.65c4.16-1.21,5.03-2.93,10.14-2.51,2.77.22,4.4,1.82,6.84,2.49,5.94,1.61,8.21-2.48,13.42-2.49.48,0,4.36.36,4.54.51s-.51,4.59-.73,4.65c-.1.03-.78-.39-1.04-.46-6-1.45-7.12,2.01-11.88,2.76-6.21.98-9.36-5.34-16.66-2.53-1.53.59-2.93,1.84-4.54,2.32-5.6,1.68-9.03-3.34-14.41-3-3.57.22-6.44,3.37-10.07,3.37-4.25,0-7.06-3.78-11.67-3.49s-7.2,4.46-12.35,3.28c-.32-.07-2.5-.89-2.56-1.05l.35-6.36h2.33Z"/>
    <path class="cls-1" d="M116.15,74.5c.1.18-.86,3.89-1.04,3.96-.31.12-1.99-.49-2.56-.51-3.33-.13-6.34,2.92-9.71,3.22-5.03.45-7.4-3.29-11.66-3.48-5.32-.23-7.79,4.88-14.29,3.13-2.41-.65-4.57-2.76-7.09-3-5.16-.49-8.17,4-13.62,3.2-3.75-.55-6.1-3.65-10.2-3.31-3.32.28-6.02,3.11-9.37,3.44-.98.1-4.46-.14-5.24-.65-.13-.08-.21-.11-.21-.3.4-.63-.14-4.16,0-4.31s3.48.75,4.12.77c4.44.16,7.1-3.61,12.16-3.21,3.41.27,5.94,2.83,9.21,3.09,4.59.37,7.11-2.88,11.3-3.1,6.78-.35,8.18,5.5,16.24,1.96,3.12-1.37,4.07-2.4,7.83-1.94,3.99.49,6.35,3.56,10.7,3.2,3.62-.3,6.33-3.29,10.18-3.07.45.03,3.09.62,3.25.9Z"/>
    <path class="cls-1" d="M31.15,83.88c.13-.13,2.35.36,2.76.39,5.79.4,8.26-3.55,13.76-3.09,3.27.27,5.74,2.74,9.09,2.96,5.92.4,9.18-4.87,15.51-2.35,2.47.98,3.63,2.31,6.61,2.47,4.44.25,7.08-3.06,11.06-3.23,5.87-.25,8.52,4.73,14.83,2.8,1.86-.57,3.65-2.09,5.57-2.4.71-.11,3.88-.14,3.98.83.02.2-1.42,3.64-1.6,3.73-.44.23-1.15-.1-1.66-.07-1.8.09-3.57,1.56-5.28,2.2-7.68,2.87-9.44-2.95-15.73-2.58-4.72.28-7.43,4.74-12.98,3.06-1.88-.57-3.96-2.25-5.87-2.74-5.71-1.44-8.71,3.27-13.95,3.04-3.78-.17-6.8-3.38-10.93-3.36-3.87.02-6.52,3.28-10.32,3.48-1.62.09-3.35-.21-4.92-.63l.07-4.51Z"/>
    <path class="cls-1" d="M111.74,89.16c-1.08,1.4-1.63,3.86-2.96,4.95-1.24,1.01-5.11,2.59-6.68,2.66-4.06.18-6.62-3.28-10.44-3.61-6.84-.6-8.66,5.79-16.49,2.34-1.97-.86-3.46-2.15-5.75-2.34-4.36-.36-6.6,2.71-10.48,3.32-4.39.69-7.34-3.17-11.52-3.44-2.91-.19-4.89.99-6.88,3.09-.06.06-.32.7-.42.32-.18-.67.04-1.31-.44-2.12-1.02-1.72-2.8-1.15-2.89.96-.05,1.2.73,1.6-.85,1.15-.52-.15-4.66-1.82-4.81-2.04-.08-.12-.08-2.8,0-2.91.11-.12,2.67.48,3.14.51,4.17.3,5.17-1.23,8.59-2.58,6.67-2.61,9.6,2.94,15.72,2.45,4.95-.4,7-4.39,12.77-2.69,1.49.44,2.66,1.46,4.09,2.02,7.34,2.85,9.64-2.94,15.82-2.54,3.7.24,6.11,3.33,10.07,3.48s6.73-2.75,10.39-2.97Z"/>
    <path class="cls-1" d="M41.84,99.72c.14-3.66,5.26-3.76,7.75-3.16,2.75.66,4.55,2.88,7.67,3.04,5.89.3,8.24-5.54,15.1-2.43,1.06.48,2.05,1.25,3.16,1.71,7.34,3.1,9.48-3.25,16.15-2.63,4.47.42,6.18,4.44,11.5,3.42.66-.13,3.07-1.36,3.19-1.23.14.16-1.33,2.14-1.55,2.43-.61.82-2.44,3.23-3.3,3.36-2.24.34-5.22-1.97-7.25-2.84-7.34-3.14-10.19,4.02-16.28,2.77-4.12-.84-5.52-4.01-10.5-3.54-2.99.28-5.47,2.91-8.36,3.21-6.3.66-9.43-5.56-16.03-3.34,0-.3.3-.29-.06-.38-.44-.11-.74-.17-1.16-.39Z"/>
    <path class="cls-1" d="M47.43,103.2c2.68.29,4.25,2.35,6.58,3.28,6.5,2.61,9.09-2.95,15.29-2.51,4.92.36,6.63,4.82,12.47,3.02,2.32-.72,4.23-2.49,6.63-2.96,4.3-.84,6.84.98,10.31,3.17.25.44-2.03,2.48-2.45,2.62-.98.32-2.31-1.22-3.41-1.57-5.87-1.85-8.22,3.32-13.1,3.45-5.53.14-8.44-5.26-14.14-3.1-.98.37-4.82,2.8-5.34,2.79-.36-.01-1.54-.5-1.96-.66-2.62-1.01-10.66-4.63-12.47-6.37-.13-.13-1.21-1.16-.61-1.16.69,0,1.55-.07,2.21,0Z"/>
    <path class="cls-9" d="M28.82,92.89c-.11.12-2.88-.71-2.71-1.35l.13-53.77c3.54,2.17,2.53,6.74,2.45,10.36l.13,44.75Z"/>
    <path class="cls-9" d="M24.03,91.22l-2.79-.93c-.35-.51-.03-1.06-.03-1.57.06-16.02-.05-32.09.33-48.08.41-1.09,1.07-2.28,2.06-2.86l.43,53.44Z"/>
    <path class="cls-1" d="M93.31,111.96c.06.1,0,.36-.12.44-2.72,1.58-5.23,3.53-8.15,4.72-2.69,1.11-4.33.73-7.13.35-5.01-.68-9.43-2.24-14.2-3.79-.35-.11-.98.05-.42-.42,5.44-4.61,7.67-.63,12.7.94,7.02,2.18,9.84-4.19,15.26-3.12.32.06,1.95.7,2.05.87Z"/>
    <path class="cls-9" d="M38.48,47.36c1.24,1.3,1.08,7.72.91,9.68-.28,3.32-2.99,5.56-5.9,6.31-.27.07-2.01.4-2.09.32-.17-.18.21-4.49,0-5.15,1.29.17,2.1-.29,3.01-1.16l1.7.63c.8-.83.88-2.27.95-3.39.12-1.97-.46-5.42-.1-7.06.22-.99.99-.74,1.52-.17Z"/>
    <path class="cls-1" d="M18.87,75.38c-.19.96.35,4.42.06,5.02-.19.39-1.77.29-2.22.26-3.17-.18-5.65-2.35-8.78-1.81l-.72-4.18c.06-.21.49-.29.67-.32,1.64-.26,4.69.57,6.5.76,1.48.15,3,.1,4.48.26Z"/>
    <path class="cls-9" d="M12.32,56.34c.55-.1,1.16.55,1.25,1.08.71,4.23-1.65,9.32,3.08,12.1.38.23,2.09.86,2.15.96.13.24.15,1.92-.14,2.04-1.5.61-4.67-1.8-5.64-2.94-2.07-2.44-2.16-8.54-1.78-11.65.07-.54.51-1.49,1.07-1.59Z"/>
    <path class="cls-1" d="M18.87,83.62v5.15l-7.86-1.22c-.28-.14-1.54-4.49-1.84-5.16-.01-.16.06-.24.2-.29.96-.36,2.82.96,3.79,1.27,1.84.6,3.83.61,5.72.25Z"/>
    <path class="cls-1" d="M11.62,72.03c-.24.24-2.27-.83-2.78-.89s-2.18.33-2.26.24c-.16-.16-.44-4.45-.31-4.64l2.53-.19c.27.16.93,2.39,1.18,2.88.2.39,1.85,2.39,1.64,2.59Z"/>
    <path class="cls-9" d="M41.94,103.1c.06.04.08.3.22.34.17.04,1.61-.63,1.63.31.02.88-3.04,4.43-3.91,3.77-.79-.59,1.13-2.77,1.38-3.34.23-.53.1-1.42.69-1.08Z"/>
    <path class="cls-9" d="M33.24,102.55c.87.1,3.79,4.94,3.56,5.15-.82.75-3.76-3.1-4.23-3.74-.26-.36-.33-.85-.44-1.02.08-.29.88-.41,1.11-.39Z"/>
    <path class="cls-9" d="M38.25,97.82c.89.63,1.16,7.77.45,7.95-.41.11-.64-1.2-.67-1.48-.21-1.99.13-4.37-.13-6.43,0-.14.28-.09.35-.04Z"/>
    <path class="cls-9" d="M19.09,66c.13.22-.1,1.65-.24,1.77-.62.49-2.19-.99-2.42-1.61-.09-.24-.26-1.07-.14-1.2s2.73.92,2.81,1.05Z"/>
    <path class="cls-9" d="M97.37,37.78c-.98.28-2.07.08-3.07.13-.07-.39.19-.25.42-.26.9-.03,1.77.11,2.65.13Z"/>
    <path class="cls-9" d="M110.02,37.78c-.4.12-.83.29-1.23,0,.26-.02.9-.36,1.23,0Z"/>
    <path class="cls-9" d="M12.6,90.19c.1.18-.12.47-.12.52l-.37-.51c.16,0,.33,0,.49,0Z"/>
    <path class="cls-9" d="M110.15,37.14c.33-.04.22,0,.25.26-.38.06-.19-.11-.25-.26Z"/>
    <path class="cls-2" d="M71.25,52.9c-7.06,6.37-17.21,4.3-22.51-3.36-9.44-13.63,3.91-32.5,19.22-25.3,11.44,5.38,12.53,20.33,3.29,28.66ZM61.35,25.06c-12.89.19-17.85,16.96-8.46,25.66,5.66,5.24,13.65,4.46,18.61-1.35,7.87-9.22,1.9-24.48-10.16-24.31Z"/>
    <path class="cls-2" d="M77.32,13.09c2.19.1,2.51,2.56.22,2.8-3.56.37-8.26.34-11.91.39-6.4.09-12.78-.3-19.18-.26-1.55.16-1.94-2.6-.49-2.84,6.8.05,13.61.3,20.41.27,3.5-.02,7.54-.52,10.96-.36Z"/>
    <path class="cls-2" d="M86.53,20.18c2.25,0,4.75-.2,6.97-.04.78.05,2.05.04,2.31.93.5,1.67-.61,1.81-1.82,1.91-6.56.56-13.88-.27-20.52.13-1.46-.32-1.77-2.16-.24-2.7,4.43-.11,8.87-.21,13.3-.23Z"/>
    <path class="cls-2" d="M49.05,22.67c-.18.16-.52.27-.76.3-1.12.15-5.14.31-6.14.12-1.08-.21-1.46-2.5.4-2.79.79-.12,5.82-.14,6.28.17.74.48.9,1.58.22,2.2Z"/>
    <path class="cls-2" d="M39.48,37.56c.69,0,1.94-.28,2.34.56.28.58.14,1.54-.36,1.91-.8.59-4.51-.1-5.68.3-1.21-.26-2.13-2.25-.49-2.65.73-.18,3.25-.11,4.19-.12Z"/>
    <path class="cls-2" d="M81.62,46.32c.86-.07,3.38-.19,4.11-.01.93.23,1.1,1.74.2,2.35-.73.5-4.68.6-5.55.29-.67-.23-1.18-1.02-.89-1.77.31-.79,1.44-.81,2.12-.87Z"/>
    <path class="cls-2" d="M46.85,55.07c1.2-.17,3.32-.35,3.68,1.22.43,1.84-2.81,1.58-3.84,1.45-2.07-.28-1.9-2.37.16-2.67Z"/>
    <path class="cls-2" d="M47.21,113.27c1.24-.21,2.94.17,2.85,1.82-.09,1.74-1.71,1.65-2.99,1.48-2.23-.3-1.79-2.97.14-3.3Z"/>
    <path class="cls-2" d="M57.9,117c1.41-.32,2.44.34,2.23,1.95-.16,1.2-1.29,1.27-2.25,1.1-1.62-.29-1.28-2.76.02-3.05Z"/>
    <path class="cls-8" d="M61.35,25.06c12.05-.17,18.02,15.09,10.16,24.31-4.96,5.81-12.96,6.59-18.61,1.35-9.39-8.7-4.43-25.47,8.46-25.66Z"/>
  </g>
</svg>